<svg width="181" height="120" viewBox="0 0 181 120" fill="none" xmlns="http://www.w3.org/2000/svg">
<path fill-rule="evenodd" clip-rule="evenodd" d="M138.398 103.382V103.482L138.458 104.937L140.603 103.945C139.853 103.817 139.114 103.633 138.392 103.393" fill="#F8F2E9"/>
<path fill-rule="evenodd" clip-rule="evenodd" d="M137.646 101.993C138.205 102.274 138.793 102.496 139.398 102.655C140.244 102.906 141.116 103.057 141.996 103.107C142.349 102.56 142.647 101.98 142.886 101.375C143.057 100.903 143.197 100.421 143.306 99.9309L141.134 99.5891L138.635 98.4864L137.646 101.993Z" fill="#F8F2E9"/>
<path fill-rule="evenodd" clip-rule="evenodd" d="M163.073 43.0758C161.023 49.8629 164.798 48.1703 158.966 53.1544L160.415 54.9463C160.265 56.6555 160.138 56.6004 159.453 57.7472C161.692 57.6314 161.454 58.4253 162.427 59.9526C164.527 58.4694 163.057 58.0559 166.252 57.7086C167.872 57.5322 169.486 57.3282 169.801 55.2165C168.585 54.0476 168.474 54.5053 167.037 53.9815C167.468 52.3936 168.281 52.8788 169.674 52.2613C170.652 51.8202 171.332 51.2302 171.547 49.5045C170.995 48.264 170.541 48.5783 169.259 48.0931C169.336 45.7057 171.332 45.4686 169.933 43.0041C168.115 41.4273 167.562 43.4452 166.263 44.5589C164.903 43.4562 165.826 43.1971 164.544 41.8022C163.51 42.1606 163.798 42.1385 163.057 43.0482M171.719 48.7657L172.647 49.7306C173.106 49.284 173.714 48.5176 174.422 48.5011C175.76 48.4625 175.715 49.499 175.815 50.304C176.6 50.8553 176.749 51.0318 177.772 50.2654C177.772 47.4535 176.545 49.6313 176.147 47.1723C178.164 47.0124 179.397 48.0214 180.668 45.8766C180.115 44.3163 180.027 45 179.115 43.7264C179.717 42.326 181.586 41.747 180.817 39.9441C179.325 38.3342 179.087 39.7456 177.247 39.889C176.694 33.4658 174.742 39.7456 173.488 40.9917C172.272 41.725 174.013 39.3376 171.216 41.0965C170.918 41.2497 170.65 41.4552 170.425 41.7029C171.022 45.7939 171.686 42.949 169.989 47.5583C170.536 47.7898 171.442 48.0655 171.73 48.7933L171.719 48.7657ZM163.588 34.4306C162.692 34.982 163.062 34.7173 162.482 35.401C163.969 37.2646 165.356 37.1984 162.09 40.6057C161.951 43.1364 161.924 42.8883 161.349 45.4576L162.206 43.9083C162.692 42.6678 162.675 42.1771 163.599 40.9752C165.495 40.9752 165.611 42.1606 166.362 43.4617C167.54 42.1385 166.805 42.5134 167.385 40.8483C169.768 40.7877 172.36 40.9255 172.885 37.9538L170.066 36.8511C171.603 34.5905 178.584 33.8076 172.194 30.9461C172.332 29.2535 174.444 27.3348 172.902 25.8351C171.531 24.4953 170.558 26.1384 170.138 26.6015L169.154 27.5443C167.761 25.8241 169.248 25.8903 167.451 24.7269C165.826 25.3554 165.296 27.434 165.732 29.6008C166.307 32.4017 164.964 33.3335 163.626 34.4637L163.588 34.4306ZM153.759 38.6319C154.743 37.237 154.815 34.7394 157.076 35.2963C159.099 35.7925 159.392 38.0144 158.939 40.3135C160.896 40.3411 162.836 39.9662 163.361 37.4079L160.818 36.2446C161.564 34.8717 162.305 34.5905 163.289 33.8628C166.346 31.7456 165.5 29.7993 164.511 29.452C163.521 29.1046 162.195 30.3672 161.83 30.1191C162.172 27.9413 165.445 27.5498 164.903 23.6352C163.013 22.5932 163.599 24.0212 161.83 23.2272C161.68 19.0976 160.724 15.0011 158.397 20.9061L157.817 22.1025C157.004 21.7165 154.887 18.629 154.5 22.4388C154.268 24.6442 155.666 26.0281 155.208 27.9523C153.582 27.1142 154.605 24.0487 152.554 25.5705C151.15 26.6125 153.815 30.7146 153.903 34.0888C149.193 31.2383 151.626 36.6526 153.77 38.665L153.759 38.6319ZM138.199 27.0205C136.833 26.3258 136.491 23.8062 134.987 25.2452C133.677 26.7614 134.987 27.6105 135.103 29.4905C133.533 29.7276 133.76 29.3417 132.892 30.2349C132.964 32.8758 134.678 32.3851 136.126 34.166C135.02 35.82 134.666 33.6147 133.732 35.8476C134.838 38.3618 134.982 36.4927 136.27 36.1784C137.685 35.8366 137.961 37.4575 138.481 38.3838C140.222 37.86 139.315 37.7112 141.593 38.1633C141.786 32.727 141.676 35.9193 143.411 32.8428C142.046 29.5347 141.753 30.9957 140.736 30.086C141.057 27.616 141.162 25.8186 139.603 25.1239C138.453 25.8903 138.995 25.791 138.199 27.0205ZM149.376 36.9172C150.564 38.5988 149.343 39.4534 149.58 41.4548C149.945 41.0248 150.874 37.8049 151.128 37.044L150.614 35.6216C150.21 34.177 150.255 34.4086 150.769 32.8042C155.252 31.7511 149.917 30.6429 151.581 26.188C151.753 25.7304 154.45 22.8799 152.742 19.9577C151.194 19.7758 151.554 20.7296 150.177 21.281C149.005 19.7978 149.73 17.19 147.502 17.4546C145.418 17.6972 146.579 20.8619 145.926 22.4168C144.207 22.0088 142.129 21.0274 143.284 24.545C144.185 27.3017 145.534 26.1108 145.694 28.8565C144.755 28.5753 143.373 27.5333 142.687 28.3603C141.25 30.1026 145.562 33.1074 145.844 33.4382C147.187 35.0151 145.844 34.2101 146.048 36.6085C147.513 36.6746 149.039 34.4306 149.387 36.9172H149.376ZM144.224 53.5239C145.186 52.2282 145.468 52.2668 146.678 53.6231C146.596 52.5169 146.718 51.405 147.038 50.3426L149.105 49.8684C148.524 48.4018 147.032 46.5217 147.623 44.1123C148.176 41.8242 150.338 37.5347 148.641 36.5919C147.242 35.809 147.441 37.5182 146.065 37.9813C144.92 36.3273 146.009 34.5574 143.334 34.2322C141.084 36.3383 142.781 36.6967 142.04 39.1392C140.531 38.8745 137.861 37.5623 139.437 41.4328C140.542 44.1895 141.388 43.0868 141.681 45.6726L138.702 44.796C138.149 47.4314 139.254 48.0324 140.913 49.499C142.709 51.0979 142.748 51.0979 143.058 53.783L144.224 53.5239ZM132.185 48.071C130.703 48.7437 130.598 47.5197 129.26 48.7547C128.956 52.2171 132.947 51.2357 134.418 53.3198C133.312 54.8085 133.03 53.2868 132.417 55.5252C133.168 56.7382 133.6 56.7603 134.888 57.1076C136.43 55.2882 135.352 54.1689 138.442 55.1669C138.597 49.6148 138.995 52.3109 140.244 49.9566C139.398 49.0855 138.298 47.8174 138.033 46.6761C137.336 43.958 140.913 44.57 139.885 43.1309C139.332 42.337 139.116 43.6161 137.867 43.2853C137.817 40.6609 138.447 38.2791 136.833 36.8952C135.175 37.1378 135.883 37.5844 134.749 39.062C132.826 38.2956 134.141 36.228 130.952 36.4706C129.332 39.5251 130.991 39.4369 130.952 42.0944C129.327 42.0448 129.294 41.7856 128.232 42.767C128.586 45.7553 130.471 46.0751 131.377 46.7643C132.671 47.7843 131.963 46.9407 132.185 48.071ZM158.463 47.9718C158.988 45.8381 160.757 45.5679 161.31 43.1695C161.99 40.2143 159.503 41.4438 158.994 41.3997L158.441 41.124C157.844 38.6485 159.834 35.5058 155.5 36.2887C154.986 37.4796 154.688 39.8228 153.842 39.7787C153.24 39.7787 151.283 36.2336 150.807 40.1702C150.492 42.7615 151.913 43.1419 151.399 45.7774C149.995 44.7574 149.077 41.918 148.237 44.7354C147.563 47.0235 150.288 49.4494 149.978 51.732C148.873 51.4232 148.873 50.8553 147.646 51.0814C146.689 53.5735 148.198 54.8416 149.757 56.4295L150.233 55.63C150.631 54.8967 150.288 55.4591 150.642 54.8085C152.106 52.1069 154.29 53.1544 154.926 53.8877C155.992 56.0545 155.346 55.6355 155.578 58.3316C157.485 58.2875 159.392 57.6038 159.834 55.0566C158.795 54.1689 158.657 54.4391 157.347 54.2571C157.9 52.2502 158.823 52.2447 159.961 51.4287C160.572 51.0843 161.059 50.558 161.354 49.9236C163.112 46.3012 158.651 47.9883 158.463 47.9718ZM38.8102 71.6632C38.4273 71.5818 38.083 71.3746 37.8324 71.0746C37.5818 70.7747 37.4395 70.3994 37.4282 70.0092C39.0866 69.6563 43.6746 68.7742 39.2082 69.2263C38.5499 69.3358 37.8851 69.4021 37.2182 69.4247C36.577 68.493 36.4554 67.291 37.8152 66.668C39.9599 65.7252 40.0263 66.464 40.5127 66.3868C40.579 66.3868 43.5972 67.5502 44.1168 67.6494C44.6364 67.7487 44.7912 67.6494 45.0565 67.8424C44.9734 68.0001 44.8811 68.153 44.7801 68.3C52.5189 61.342 63.0492 54.4336 70.3016 52.7244C71.0866 50.3315 73.2534 46.45 73.5077 45.2591C71.0036 42.7505 72.4022 38.2735 73.458 35.2632C69.4282 33.0137 65.8242 20.5863 74.1434 23.7179L74.4253 20.9061C71.1529 19.026 63.5191 19.5332 65.4704 2.47997C74.0992 6.60406 75.1937 3.44483 84.6792 1.04646C88.3662 0.114683 92.3573 -0.33742 96.1659 0.291118C100.831 1.05749 103.977 3.22981 104.706 7.86114C113.274 11.3512 107.47 18.0005 108.736 24.4016C117.365 20.2003 113.186 31.299 109.289 35.1309C110.339 41.3225 111.71 39.1116 109.162 45.8766C118.752 57.1076 102.268 47.1944 123.495 57.8244C127.331 59.7431 134.495 64.8485 138.774 68.697L139.326 68.6143C139.232 67.1808 138.995 67.2359 137.861 66.3648C137.093 65.7748 134.219 63.2166 135.794 61.954C136.634 61.2758 137.452 62.2517 138.646 62.6156C138.58 60.1456 134.777 58.5356 136.485 55.7348L139.033 56.0986C139.498 53.5624 138.564 53.2647 140.073 51.1365C143.389 51.2192 141.543 53.3419 143.185 54.9629C144.163 54.2406 143.848 54.7864 144.29 53.6286L146.059 53.7665C146.388 55.132 146.309 56.5635 145.832 57.885C145.208 60.0904 145.064 59.8864 144.218 61.0884C142.604 63.3875 144.699 65.8961 145.092 67.903C145.014 67.9361 144.915 67.8589 144.854 67.9637L143.008 68.311C142.223 71.9113 144.03 72.9313 145.186 74.9934C145.799 76.0961 145.606 76.0961 146.485 77.1547C146.391 74.4696 141.947 70.6598 143.804 69.0884C144.285 68.6804 145.573 69.3421 146.219 69.5791C146.142 68.4764 142.499 60.8072 145.44 61.6232C146.628 61.9485 146.037 62.6321 147.651 63.5033C147.861 60.322 145.993 59.9305 147.524 56.0159C149.376 56.3909 148.817 56.8595 150.166 57.7362C151.498 56.3192 151.194 53.5183 153.311 53.9208C155.688 54.3785 154.727 56.9808 154.704 59.2193C156.628 59.5556 156.125 58.3592 157.844 59.5501C157.96 62.996 155.838 63.4922 154.865 65.6645C156.711 66.5467 156.523 64.4295 158.087 65.852C158.53 69.1601 154.832 69.535 153.721 72.0382L156.147 72.7384C155.882 76.9231 151.863 75.3462 150.498 78.6323L154.997 76.3166C155.854 75.7653 157.496 74.1112 156.556 72.5288C156.064 71.7073 156.634 72.573 156.003 71.9003L155.793 71.6963L155.357 71.2663C156.418 69.8548 159.055 68.9616 158.861 65.9954C158.762 64.5122 158.121 64.7714 158.585 62.0753C158.802 60.7574 159.312 59.5046 160.077 58.4088C162.062 59.2138 160.94 59.903 162.189 61.2262C162.465 61.0277 165.655 57.0966 166.445 60.3826C166.689 62.9574 165.627 62.5108 165.235 64.5288C167.12 66.1332 167.899 64.4737 167.529 67.4509C166.672 68.0023 166.512 68.4874 165.572 68.9726C163.013 70.2848 163.82 68.5702 163.156 70.5385C164.129 71.2828 164.262 70.4062 165.843 71.5309C165.699 75.2691 162.416 73.8135 160.238 74.9217C160.719 76.9397 161.111 75.2029 161.896 77.5075C160.393 80.3415 158.27 77.6674 156.059 78.522C154.611 79.0733 155.556 80.3856 154.24 81.367C154.138 81.4438 154.027 81.5068 153.908 81.5544C155.257 83.4897 154.295 82.9879 154.461 84.6254C154.599 86.1031 154.732 84.7743 155.434 86.5772C155.624 87.251 155.673 87.9563 155.578 88.6497C155.482 89.343 155.246 90.0094 154.881 90.6076C153.378 92.8792 153.571 96.7331 153.19 97.8192C151.25 99.3961 148.359 99.4347 145.606 99.0377L145.534 99.3409C145.352 100.275 145.106 101.196 144.799 102.098C144.444 102.982 143.995 103.827 143.461 104.617L143.212 105.003L142.765 105.075C141.456 105.141 140.146 104.975 138.895 104.584C137.574 104.209 136.325 103.641 135.794 103.007L135.468 102.605L137.093 96.6173C136.679 96.1811 136.331 95.6871 136.059 95.1507C134.783 92.9453 135.136 93.4581 132.787 92.2616C132.864 89.0252 132.024 89.946 131.217 87.4704C130.333 84.7137 132.157 85.866 130.758 83.2305H127.79L55.1778 82.8997L52.7677 82.7729C52.0159 85.1161 52.8119 84.653 51.5074 87.2664C50.6948 88.9205 50.5566 89.8247 49.849 91.5283C47.4832 91.9088 48.3013 92.6862 47.1183 94.1858C46.9483 94.3833 46.7635 94.5676 46.5656 94.7372C46.8691 95.4934 47.1221 96.2688 47.3229 97.0583C47.5183 97.9939 47.6128 98.9477 47.6048 99.9033V100.355L47.2676 100.659C46.217 101.434 45.0357 102.014 43.7796 102.373L43.4922 102.462C43.4737 102.98 43.5051 103.499 43.5861 104.011C44.0062 106.387 45.4656 106.117 47.1515 107.743C43.5806 111.052 42.5082 112.772 43.4092 118.131L138.967 118.048L139.033 112.904C139.006 107.181 139.735 113.615 138.481 106.205V105.103H140.062C142.438 106.1 141.648 106.525 141.919 109.348L141.974 110.776L141.83 120L41.2811 119.912V109.806L43.9178 108.152L41.3032 106.387V102.881C40.976 102.899 40.6479 102.867 40.3303 102.787L39.8328 102.633L38.1468 97.2624C27.213 98.128 32.8789 95.7627 28.407 92.0301C26.6768 89.5269 26.2733 85.7116 29.109 83.8205C28.7552 78.3621 31.1211 78.3677 35.5543 78.307L36.5438 77.3642C38.1392 75.0371 39.9652 72.876 41.9941 70.9134C40.9439 71.5695 39.8052 71.9334 38.8102 71.6632ZM8.67853 50.2378C8.69021 49.283 8.7548 48.3295 8.872 47.3818C8.76145 47.7953 8.38003 49.9952 8.31923 50.1055C7.9157 50.723 7.37952 50.315 6.92624 49.8188C7.08655 48.1647 6.80463 47.9387 7.82173 46.2185C8.30137 45.4393 8.73869 44.635 9.1318 43.8091C10.2595 45.1875 11.0278 50.2654 8.67853 50.2378ZM22.6692 68.9616C22.6692 68.9616 21.7903 68.6143 23.8521 67.9471C24.3482 67.7991 24.8662 67.7375 25.3833 67.7652C25.5924 67.799 25.7901 67.8829 25.9596 68.0097C26.129 68.1364 26.2651 68.3022 26.3562 68.493C25.8974 68.8127 26.2235 68.6584 25.5326 68.686C25.2672 68.686 25.0793 68.7301 24.9356 68.719C25.1843 68.9285 25.1346 68.7907 25.4552 68.7521C25.5601 68.7466 25.6653 68.7466 25.7703 68.7521C26.0546 68.7974 26.3175 68.9304 26.522 69.1325C26.4162 69.3787 26.2886 69.6148 26.1406 69.8383C24.1396 69.9926 23.7747 69.0774 22.6692 68.9616ZM19.839 28.6029L20.3918 27.7318C21.3273 28.5954 21.9819 29.7189 22.2712 30.9571C22.531 32.2087 22.3818 33.8242 20.5079 33.1625C20.5901 32.3743 20.564 31.5785 20.4305 30.7973L19.9053 33.0412C19.0983 33.0909 18.247 32.8317 17.9375 31.9385C17.6169 30.3341 18.6008 29.7056 19.839 28.6029ZM11.1771 69.1105C10.4523 68.8351 9.79056 68.4169 9.2313 67.881C10.3037 66.7783 10.1987 65.218 11.962 64.7438C12.2512 64.6878 12.549 64.6948 12.8353 64.7643C13.1215 64.8337 13.3893 64.9641 13.6203 65.1463C13.8896 65.363 14.1 65.6436 14.2323 65.9625C14.3646 66.2813 14.4146 66.6282 14.3776 66.9713C14.2064 67.099 14.0099 67.1886 13.8011 67.2343C13.5923 67.2799 13.3761 67.2805 13.167 67.2359L12.3324 67.6163C12.9294 67.7597 13.8856 67.5281 14.4108 67.5171C14.8088 69.728 12.6253 69.6618 11.1771 69.1105ZM6.71619 46.9518L3.25583 44.6912L3.91916 45.3087L6.44533 47.4259L5.89256 48.0931C5.45153 48.2236 4.9864 48.2519 4.53274 48.1758C2.52064 46.9242 0.110555 43.6768 0 41.3115C0.635689 41.4824 1.44826 41.9014 2.11712 42.0834C3.87494 42.5575 10.3921 44.6526 6.71619 46.9518ZM19.7837 72.8211C20.1704 72.66 20.5907 72.5959 21.008 72.6344C21.4252 72.6728 21.8267 72.8126 22.1772 73.0416C22.2 73.1451 22.2 73.2523 22.1772 73.3559C22.201 73.6504 22.1099 73.9427 21.923 74.1719C21.4811 74.1448 21.0533 74.0068 20.6793 73.7707C20.3053 73.5345 19.9972 73.2078 19.7837 72.8211ZM24.3717 61.2427L24.1341 60.4047C25.3059 60.3495 25.6431 60.8623 26.6934 61.2593C26.9808 62.0477 27.1135 61.8106 26.8316 62.5108L25.6265 61.6838C26.075 61.9447 26.4247 62.3459 26.6215 62.8251C25.6431 64.0656 24.7476 61.8051 24.3717 61.2317V61.2427ZM30.712 15.5745C31.6604 16.217 32.4335 17.0848 32.9618 18.0997C33.4593 19.037 33.8407 20.046 32.6246 20.6249C32.3317 20.3051 31.9945 19.0425 31.7236 18.4581L32.1216 20.6635C29.3467 22.0418 30.5739 16.5063 30.712 15.5635V15.5745ZM5.09104 41.339C6.09708 41.339 7.88254 42.0503 7.93782 43.2247L7.26896 42.9655C7.50112 43.1475 7.40163 43.0427 7.57851 43.2632L7.6559 43.4838C7.06443 43.4176 6.42322 43.6161 5.77647 42.9049L5.09104 41.339ZM32.1769 69.921L31.7291 70.6818C30.7397 69.8162 30.0211 68.4764 28.9985 67.6219L29.7336 68.9726L31.3146 71.0567C29.5236 71.7625 26.4281 68.2504 26.7597 66.5632C26.2954 65.7583 26.3286 64.413 26.4281 63.5143C27.6386 64.5012 28.1195 64.2641 29.3467 64.8651C30.2846 65.0741 31.1253 65.5904 31.7347 66.3317C32.5417 67.4123 32.2377 68.6804 32.1658 69.921H32.1769ZM41.6293 47.4094C41.4801 47.2715 41.5022 47.4094 41.3971 47.1392C41.3971 48.8374 41.9499 50.4804 41.9499 52.0573C40.6896 52.0573 37.3674 50.1551 38.0805 46.9738C38.5835 44.6582 39.4459 44.5865 39.9157 41.5927C40.5717 42.063 41.1611 42.6193 41.668 43.2467C43.4645 45.9152 45.46 49.1682 42.8122 52.1289L42.2042 49.7637C41.9455 48.9967 41.7532 48.2091 41.6293 47.4094ZM39.1087 35.0151C38.0584 34.4031 37.8594 33.9399 37.8705 33.0743L39.7388 32.0047C41.8394 30.6705 37.6825 32.5561 37.6659 32.5561C35.6151 29.8434 42.3092 27.9523 45.1228 29.7111C44.056 30.494 43.4645 31.8117 42.6796 32.9255C41.6956 34.2652 40.6896 34.9048 39.1087 35.0151ZM12.8243 17.2561C13.7278 17.4667 14.5758 17.867 15.3118 18.4305C16.6772 19.467 16.655 19.8695 16.0691 20.6083L14.6595 19.23C15.0385 19.6713 15.3719 20.1498 15.6545 20.6579C15.6987 20.7021 15.6877 20.7351 15.6987 20.7737C13.8248 22.538 13.1118 18.3643 12.8243 17.2561ZM41.0157 53.171C41.6146 53.804 42.016 54.5971 42.171 55.4536C42.3424 56.2475 42.3424 57.0029 41.5851 57.5432C41.1595 57.2896 41.4137 56.854 41.2589 56.3302C41.1539 57.069 41.3916 57.273 40.8997 57.9016C39.0423 57.6314 40.6896 54.3895 41.0213 53.171H41.0157ZM5.96442 34.0668C5.93121 33.9288 5.88109 33.7955 5.81517 33.6698C5.77112 33.5454 5.69709 33.4337 5.59959 33.3445C5.66592 32.7435 5.56642 32.1811 5.56642 31.4313C5.58789 30.8693 5.50351 30.3083 5.31767 29.7773C6.49508 30.0088 9.09311 31.3927 9.31422 32.534C9.8283 33.2122 10.1378 34.0447 9.56849 34.8828L8.73381 33.7801C8.36898 33.2287 8.6122 33.5981 8.54034 33.3445L7.67801 32.6443L9.25341 35.0261C8.78356 35.2742 9.25341 35.1033 8.7725 35.1805C8.24861 35.2409 7.71788 35.1707 7.22783 34.9764C6.73777 34.782 6.30368 34.4695 5.96442 34.0668ZM44.8133 47.6906L44.1665 47.2274C44.4816 46.6761 46.0902 45.8491 46.6706 45.2371C45.8056 45.8355 44.8791 46.34 43.9067 46.7423C43.26 45.9593 43.7851 45.1599 44.5535 44.2446C45.4655 43.5279 46.162 43.0207 47.1736 43.142C47.2234 43.142 47.1239 43.0813 47.3837 43.142C47.8535 43.2026 47.1626 42.9931 47.5716 43.2467C48.0912 43.1089 47.9862 43.2136 48.5611 43.2467C49.136 43.2798 49.1138 43.2081 49.534 43.2467C48.5611 45.0772 46.5213 47.7237 44.8133 47.6906ZM42.359 24.6056C43.553 23.8447 44.8078 24.1094 45.9299 23.1997C46.0364 23.4695 46.0836 23.7591 46.0681 24.0487C46.0349 26.0115 44.3103 30.268 41.9333 28.2941L43.9233 25.9178L41.5519 28.0515C40.5514 27.4285 40.2197 27.0426 40.6233 26.0557C40.9107 25.4271 41.7841 24.5946 42.359 24.6056ZM43.9399 57.8244C43.6967 57.2455 46.3223 55.5252 46.9415 54.9243L44.6751 56.3909L43.5087 57.1793C43.1126 57.0242 42.7844 56.7343 42.582 56.3609C42.3797 55.9875 42.3163 55.5548 42.4032 55.1393C43.3982 53.0332 47.6822 52.6637 49.9209 52.3384C49.4953 53.9539 49.5727 54.7809 48.3234 56.5508C46.9028 58.5411 45.8414 59.0925 43.9399 57.8244ZM17.6943 48.4514L16.9314 48.3136C16.8043 47.7623 16.4616 47.0014 16.246 46.4059C16.0802 45.9318 15.8369 45.2702 15.6048 44.7519C15.743 45.2261 15.7761 46.009 15.8646 46.4556C15.9807 47.0731 16.2792 47.7567 16.4173 48.479C14.8751 48.8649 14.1068 48.2309 13.6148 46.654C13.4379 46.0751 13.2831 43.8036 13.8138 43.0537C13.7877 42.9357 13.7877 42.8134 13.8138 42.6954C13.8136 42.5782 13.8362 42.4622 13.8801 42.3535L14.7535 40.5727C15.8977 42.5851 20.9777 45.2977 18.5455 48.06L17.6943 48.4514ZM28.7497 50.0504L30.303 51.153C31.1018 51.8696 31.763 52.7253 32.2543 53.6782C32.5307 54.2296 32.8679 55.0015 31.9558 55.3323C31.5633 55.1558 30.8226 53.0111 30.3362 52.9835C30.7452 53.2868 31.5523 55.1889 31.5799 55.5694C28.606 57.7196 28.6778 51.4067 28.7497 50.0448V50.0504ZM6.40111 35.3128C7.14182 35.7649 8.27501 35.9744 9.20919 36.4872C11.6027 37.8049 14.4163 40.705 13.0786 43.3956C12.3711 42.4307 10.7404 40.0875 9.7896 39.3762L12.4374 43.6271C11.6303 44.0903 8.13129 44.0406 7.15288 41.1902C6.85685 40.2367 6.75167 39.2344 6.84333 38.2405C6.89307 36.228 6.6388 36.625 6.40111 35.3128ZM28.512 27.9082C28.4101 28.4836 28.2239 29.0409 27.9592 29.5622C27.8402 29.7356 27.6687 29.8665 27.4699 29.9359C27.271 30.0053 27.0552 30.0096 26.8537 29.9482C26.511 29.055 26.1406 28.0185 25.6873 27.0591C25.5105 26.6952 25.1346 26.0281 24.8748 25.4767C25.0793 26.0998 25.2728 26.8331 25.4275 27.412C25.5823 27.9909 26.2567 29.678 26.1627 30.2183C24.4602 30.4444 23.8798 30.8303 22.5973 28.9502C19.9053 25.0026 23.1501 22.0639 22.2767 20.2444C22.7576 19.7813 24.9577 22.0418 25.3391 22.4498C26.1627 23.3375 28.7497 26.6511 28.4954 27.9082H28.512ZM12.769 39.1777C8.80014 36.0571 11.0499 30.9075 11.4921 26.5905C14.361 28.7959 17.1028 31.5526 18.54 34.9213C19.2199 36.5203 19.1978 37.2701 17.5284 38.6871C16.9756 38.5492 16.937 37.8766 16.5998 37.2425C16.0802 36.2666 14.4716 33.1901 13.9022 32.6057C14.9193 34.4913 15.7595 37.0165 16.6274 39.0344C15.2786 40.0379 14.2947 40.3742 12.769 39.1777ZM35.9357 28.4485C34.2774 27.4561 34.5207 25.9509 35.1287 24.0377C35.5322 22.7696 36.8865 20.0239 38.0639 19.3954C38.2353 19.3954 38.3237 20.3106 38.3403 20.4981C39.0092 21.099 39.9986 23.6518 40.1202 24.4843C40.2695 25.6587 40.1976 27.8751 38.5227 28.6801C38.2935 28.7656 38.0473 28.7957 37.8042 28.7679C37.5611 28.7401 37.3281 28.6552 37.1242 28.5202C36.8368 27.1418 37.4669 25.8186 37.2403 24.3851C36.8673 25.7105 36.6448 27.0735 36.577 28.4485H35.9357ZM1.24374 35.4286C2.90206 35.7318 8.06495 38.461 5.80411 40.4955L4.00207 38.3562L5.41164 40.6719C3.91363 42.326 2.68648 40.3687 2.26637 39.0565C1.95682 38.1081 1.80757 36.2556 1.24374 35.4286ZM32.6799 69.954L32.7186 69.4523C33.7025 69.6618 33.8794 69.4523 35.3001 70.1029C36.6212 70.6984 38.5891 72.2311 37.0247 73.6371L34.7749 71.5254L36.4775 73.7308C36.8699 74.5358 35.8418 74.9934 35.3719 74.9548C33.1111 74.8004 33.592 70.974 32.6799 69.954ZM24.3883 18.414C24.4878 17.0742 24.3883 14.8578 25.4552 13.4518C25.6818 14.4056 27.2241 15.2933 28.0698 16.0762C29.6728 17.5483 30.8337 20.3271 29.2859 22.1025C28.5894 22.3561 28.7331 22.4057 28.0864 22.3671C27.4839 21.6118 27.2019 19.649 26.6049 18.7117C26.511 19.3788 27.2462 21.6008 27.4728 22.4719C26.4391 23.0894 25.5105 22.4719 24.9411 21.2755C24.5925 20.3634 24.3964 19.4004 24.3607 18.425L24.3883 18.414ZM16.5887 66.9933C15.0409 66.5577 15.0907 66.9326 14.4992 66.668C15.5661 65.1849 15.8701 64.5398 17.2631 63.3158C18.8616 61.8784 20.9427 61.0914 23.0948 61.1104C24.3275 61.6287 24.8803 62.1249 25.0793 63.3379L23.7969 63.6521C22.5252 63.9468 21.2863 64.3679 20.0988 64.9092C21.0496 64.9092 23.83 64.198 25.2672 64.0546C25.8476 69.8327 17.8711 67.3517 16.5887 66.9933ZM34.6036 45.7498C34.692 45.1985 35.3774 39.8504 35.6317 39.5141C35.0292 39.8118 34.1558 44.7023 33.9347 45.612C28.4457 45.7829 34.2664 34.9158 37.1353 33.8076C37.1228 34.4169 37.2396 35.0219 37.478 35.583C37.478 35.9799 38.2242 37.4631 38.5061 38.2074C38.6776 38.6562 38.8162 39.1169 38.9207 39.5858L39.1639 40.92C38.6609 42.5851 37.981 47.9332 34.6036 45.7498ZM38.3348 65.6701L40.5459 61.7059C40.5596 61.6666 40.5689 61.6259 40.5735 61.5846L37.7157 65.444C35.2724 64.8927 34.891 63.1504 36.2508 61.2924C38.2463 58.5632 41.574 58.9601 42.8841 57.251C43.0751 57.7494 43.2339 58.2595 43.3595 58.7782C43.6746 61.8051 42.16 67.8534 38.3348 65.6701ZM15.0299 55.5749C14.6651 55.6576 14.8917 55.7348 14.3721 55.7623C13.9299 54.4501 13.3495 52.0187 12.5645 50.6624C12.7635 51.0704 13.4213 54.7589 13.8856 56.0215C8.44637 61.2483 10.3645 45.1654 10.6962 45.8381C10.6962 45.5844 10.6409 45.7333 10.6962 45.5238C12.6917 46.3508 14.4992 48.6444 15.2455 50.1882C16.1244 51.9911 16.7158 53.7665 15.0299 55.5749ZM26.8261 42.4969C26.8288 42.34 26.8177 42.1832 26.7929 42.0282C30.9332 43.0703 35.0845 46.9628 33.3985 49.9952C32.7407 49.0248 31.0382 46.6871 30.1372 45.9869L32.7628 50.2433C27.3567 52.3109 26.4391 44.9173 26.8261 42.4969ZM12.3434 23.8613C12.454 21.8599 11.9786 21.5952 11.8459 20.8289C13.0607 21.1257 14.2287 21.5876 15.3173 22.2017C17.5284 23.536 19.7893 25.8737 18.7887 28.6084C17.7606 27.423 16.4339 25.5208 15.1736 24.5725C15.4942 24.7655 18.037 28.5533 18.0978 28.9833C16.9259 29.2259 14.8862 29.2204 13.5872 27.9743C12.2881 26.7283 12.3821 25.0908 12.3434 23.8613ZM41.4635 35.7704C43.1937 33.0137 46.3997 32.6167 47.6324 30.0088C49.744 32.738 46.9415 36.3879 45.5872 38.7477C45.1228 39.5527 44.6751 40.3246 44.255 41.1461C43.8957 41.8628 43.5364 42.8718 43.1881 43.4121C41.0489 41.5596 39.9047 38.257 41.4635 35.7704ZM18.7224 42.6788C19.6455 41.8518 24.5542 45.1544 25.3888 45.8105C27.1356 47.5913 28.7442 49.5321 27.5668 52.355C26.207 50.6734 24.8692 48.6665 23.1446 47.3267C23.3325 47.6134 26.5939 52.2888 26.7431 52.7189C23.6974 53.8216 21.4365 52.1234 19.8611 49.8243C19.3857 47.9001 19.9053 44.1123 18.7224 42.6788ZM32.8402 24.2858L34.0066 22.0418L32.5528 24.1039C30.0321 22.505 33.8186 20.3051 35.289 19.5663C35.6207 20.6304 35.2006 23.0729 34.3548 24.0873C33.8076 24.7434 33.5478 24.7435 32.8402 24.2858ZM24.4491 15.3705C24.4084 16.4147 23.9879 17.4084 23.2662 18.1659C22.9401 18.447 23.0451 18.3974 22.7134 18.4636L22.238 13.6448C22.2511 14.0616 22.2008 14.478 22.0888 14.8798C22.2081 16.0609 22.1746 17.2524 21.9893 18.425C21.0637 17.9846 20.248 17.3443 19.6013 16.5504C19.1094 15.8888 18.7058 14.8964 18.9712 14.345C18.4571 12.6138 21.2044 10.4084 21.5637 8.16438C23.222 9.77432 24.6094 12.9501 24.4491 15.3705ZM17.0862 57.5542C17.0862 57.5542 17.1138 57.5046 17.0862 57.477C17.0586 57.4495 17.0862 57.4164 17.0862 57.4053C16.9314 57.1186 17.1857 57.4495 16.9204 57.1903C16.936 57.004 16.9134 56.8164 16.854 56.639L16.5555 55.1393C16.4923 54.4847 16.4923 53.8256 16.5555 53.171C16.8209 49.7747 16.6661 51.6934 16.4339 49.2564C19.5847 50.4032 23.9295 53.6672 24.5818 56.8154C24.7642 57.6976 24.5818 59.1531 23.1943 59.495C22.5255 58.5797 20.9114 55.3929 19.828 54.3454L22.5918 59.8589C22.4196 60.1091 22.1988 60.3223 21.9426 60.486C21.6864 60.6497 21.3998 60.7605 21.0999 60.8119C20.8 60.8633 20.4929 60.8542 20.1965 60.7852C19.9002 60.7163 19.6208 60.5887 19.3747 60.4102C18.0757 59.5997 17.7993 58.5356 17.0862 57.5542ZM20.9059 23.4588L20.4526 23.5415C20.132 23.1225 19.8998 21.9757 19.7063 21.3692C19.4928 20.6958 19.2324 20.0381 18.9269 19.4009C19.032 19.9136 19.1425 20.8178 19.2752 21.5511C19.4852 22.7365 19.9109 23.2052 19.4852 23.7841L18.9325 23.955C16.1686 23.1335 16.3787 20.283 16.9204 18.039C17.1912 16.9363 17.5726 15.9053 17.4013 15.0066C18.8606 15.8226 20.1651 17.7634 20.7898 19.0039C21.1641 19.6712 21.4309 20.3931 21.5802 21.1431C21.7903 22.1576 21.8456 22.5381 20.9059 23.4588ZM37.2237 55.8726C36.9305 54.9533 36.6978 54.0158 36.5272 53.0662C36.483 53.6176 36.6157 55.5418 36.6378 56.0215C36.6709 56.5728 36.7096 57.0249 36.7373 57.5542C36.776 58.1938 36.9418 58.5687 36.6267 59.2083C36.0242 59.1752 34.6036 59.8533 33.5146 58.0504C32.7516 56.6213 32.5205 54.9689 32.8623 53.386C33.288 50.8939 35.1563 49.069 35.3001 46.8305C36.6066 47.8877 37.654 49.2285 38.3624 50.7506C39.28 52.559 41.071 56.9753 38.9705 58.5687C38.5416 58.8524 38.0297 58.9844 37.5167 58.9436L37.2237 55.8726ZM31.5578 64.5729C30.5904 64.7052 29.9879 65.1242 28.6226 63.8506C27.892 63.0561 27.2626 62.1746 26.7487 61.2262C26.5635 60.6545 26.3476 60.0931 26.1019 59.5446C25.8919 58.8719 25.82 58.486 25.6542 57.8905C25.3775 56.7703 25.2401 55.6204 25.2451 54.4667C25.4275 53.9153 25.1512 54.0642 25.6321 54.0421C27.7934 55.7568 30.2256 55.1944 32.6246 57.6755C33.4714 58.5042 34.0885 59.5375 34.4156 60.6749C34.8247 62.2407 34.0618 62.8086 32.8126 63.6576C31.4362 62.6432 29.9824 60.0077 28.6944 59.0704C29.3799 59.8754 30.2809 61.8272 32.199 64.0326L31.5578 64.5729ZM20.6903 42.1661L23.1004 36.3218C22.4915 37.206 21.9377 38.1266 21.442 39.0785C21.0883 39.7181 20.3365 41.4548 20.0325 41.8353C16.5003 40.297 19.7395 36.1288 21.3812 34.4141C23.8024 31.8944 24.8416 31.9165 26.008 31.106L25.9582 31.9882C25.6597 34.0943 27.3236 36.399 25.6708 40.2033C24.5818 42.6513 22.918 43.776 20.6903 42.1661ZM31.7457 76.1292C30.9276 79.327 27.821 78.6047 25.4607 76.9121C22.8627 75.0485 22.835 72.6832 20.6074 70.8969C22.0722 70.5275 21.9009 70.3786 23.9682 70.3179C27.4894 70.2242 34.4709 71.972 32.0221 75.4289C30.3638 74.7508 28.3959 73.4441 26.8426 73.3779L31.7457 76.1292ZM9.51322 57.9347C10.2073 57.7576 10.9129 57.6287 11.6248 57.5487C13.4821 57.3557 14.0294 57.2675 16.047 57.9071C17.7606 58.9381 18.4184 60.0408 16.8817 61.7665L11.3042 60.4047C12.1979 60.8625 13.1213 61.2603 14.0681 61.5956L16.0967 62.2352C16.1863 62.2624 16.2732 62.2975 16.3565 62.3399C16.9093 62.6597 15.859 63.7073 15.45 63.9499C15.0374 64.2119 14.55 64.332 14.0625 64.2917C10.8233 64.2531 7.36293 61.0222 5.96442 58.2269C7.35188 58.1276 7.63932 58.3757 9.50216 57.9181L9.51322 57.9347ZM6.96494 50.3812C8.5127 50.9325 10.4474 51.6879 9.12628 53.5349C8.0539 53.4301 6.75488 52.9118 6.09708 52.8898H5.70461C6.28391 53.1871 6.88437 53.4414 7.50113 53.6507C8.18104 53.8988 8.8112 53.9043 9.01572 54.4005C8.32476 55.437 8.03731 55.5418 6.98152 55.3709C5.0247 55.0566 2.73622 53.1103 1.50907 51.5941C1.18422 51.2914 0.973464 50.8865 0.912075 50.4473C1.9734 50.8388 4.14027 50.4473 5.46139 50.3371C5.94783 50.3205 6.47297 50.4418 6.96494 50.3812ZM28.9763 26.8551C29.2804 25.6035 30.01 23.9771 29.5568 22.946C29.8442 22.9019 29.6397 22.8247 30.0156 22.9791C31.2706 23.7634 32.3905 24.7446 33.3322 25.8847C35.0734 27.8972 38.0971 32.534 34.4046 34.2101C34.0287 33.6863 33.1332 30.3893 32.3538 29.2866C32.188 29.667 33.4925 33.4878 33.6086 34.3369C32.8236 35.208 31.8618 34.9544 30.8447 34.8883C31.5122 35.966 31.9121 37.187 32.0111 38.45C32.0111 40.0323 31.6296 41.8794 29.6452 41.4438C29.6452 40.8539 29.7447 40.3025 29.7558 39.7401C29.7668 39.1778 29.6728 37.7939 29.7558 37.3583L29.3633 40.1151L29.0482 41.4769C28.7339 41.5718 28.4026 41.5978 28.0773 41.5531C27.7519 41.5083 27.4401 41.394 27.1632 41.2178C24.8803 39.4755 29.3025 34.8828 29.7171 33.565C27.8874 30.6374 28.3407 29.463 28.9763 26.8551ZM10.0439 27.7373L9.94438 27.5994L9.80066 28.2666L9.95544 28.6029L9.70669 28.7573C7.77751 30.1467 6.39005 27.3568 6.22422 26.0612C6.15236 25.3885 6.17447 21.9426 6.50613 21.3692C6.91519 21.9371 13.4379 25.8461 10.0439 27.7373ZM32.4699 64.8541L32.503 64.4461C33.299 64.617 33.4427 64.4461 34.5925 64.9974C35.6594 65.4771 37.2569 66.7176 35.991 67.8589L34.1669 66.1497L35.5488 67.9306C35.8639 68.5812 35.0347 68.9506 34.6367 68.923C32.8236 68.7687 33.2106 65.6701 32.4699 64.8541ZM74.1987 32.1536L74.5967 33.2177C72.2474 34.0833 69.2182 26.4416 71.4127 25.1845C73.0434 24.2583 74.9725 28.443 74.1213 29.1267C73.6183 28.5753 73.3474 27.7704 72.6785 28.024C72.7836 29.9592 73.5243 30.5602 74.1987 32.1536ZM39.0976 77.7391C40.3358 74.9824 41.5796 73.3283 44.0726 71.7129C45.1173 67.1422 64.6523 57.8519 70.5283 55.1117C76.2605 62.6211 80.0857 64.7328 89.1622 67.7486C98.0066 70.6818 107 60.934 112.627 55.619C121.013 55.2441 143.644 74.3042 144.959 80.1264L137.32 80.7329L56.615 80.8212C51.745 80.8873 52.1928 80.0492 48.6661 79.5916C45.6901 79.2467 42.6961 79.0791 39.7001 79.0899L38.6996 78.9631L39.0976 77.7391ZM72.7283 52.7023C72.5127 49.51 72.8499 49.7471 74.8288 47.5307L78.4495 48.0545C76.559 49.907 74.9891 50.0504 72.7283 52.7023ZM104.59 48.2585C106.884 47.7071 110.145 48.8374 110.803 51.4563C111.511 54.2847 109.427 56.2861 107.907 57.9567C107.426 52.9339 107.453 52.2613 104.59 48.2585ZM101.887 49.091C102.76 50.3922 103.628 50.4253 104.773 52.7409C105.917 55.0566 106.083 57.0029 105.972 59.5391C104.756 60.7961 103.081 62.1194 101.312 62.2131C100.251 57.4053 102.18 54.6431 101.887 49.091ZM99.5046 63.3875C98.1006 65.3337 96.0608 65.9678 93.6618 65.8686C88.919 58.1497 97.4538 58.5742 97.6805 47.8395C102.44 48.7547 98.3991 54.6651 99.5046 63.3875ZM89.7703 65.8355C87.9074 65.8906 86.1828 65.5598 84.7511 64.4075C84.8893 59.9471 85.9727 57.6369 89.1733 54.7975C92.6779 51.6824 92.6447 50.2488 94.8281 46.6706C98.0176 49.3722 94.5462 53.4356 92.8437 56.0821C90.0522 60.4157 90.605 61.1876 89.7758 65.8355H89.7703ZM75.5806 58.1662C75.0701 58.0442 74.6107 57.766 74.2667 57.3705C73.9228 56.975 73.7115 56.4821 73.6625 55.9608C74.9891 49.8464 83.0983 48.0545 88.4492 47.2385C86.5366 49.0855 83.8722 50.4694 81.5561 51.9635C78.1234 54.1744 77.8359 56.0711 75.5861 58.1662H75.5806ZM82.4184 62.9023C80.1465 62.577 78.6319 61.6397 77.9078 60.0739C78.5103 53.7609 86.4536 50.8498 88.7919 49.0745C90.5663 47.7182 90.9366 46.3729 92.5507 45.2867C93.9658 48.0049 89.6652 51.5996 87.9185 53.5183C84.027 57.8244 84.2204 57.0635 82.4239 62.9023H82.4184ZM92.8713 24.9199L92.5728 37.4245L88.7476 36.829C87.2828 39.5858 79.9973 40.3521 78.1123 37.5237C75.1605 36.195 76.0339 33.5871 76.0062 30.3562C76.0062 27.434 75.7851 24.6552 76.4982 21.8654C79.1405 20.1121 84.1265 20.0239 87.5923 19.467C88.416 18.9653 94.8392 16.2582 96.7186 15.4257C99.8805 14.0197 104.905 15.8061 105.602 19.0039C107.111 21.0494 106.552 31.2218 106.547 34.5078C106.077 36.84 105.585 38.5106 102.97 38.3673C101.506 40.4514 96.0829 38.6154 94.5407 36.7628L94.7839 27.1253C98.5483 25.9233 100.284 26.9874 103.219 23.6793L92.8713 24.9199ZM108.714 33.3941C108.056 33.8793 107.923 33.8021 108.106 33.3941L108.659 31.8117C109.455 29.7442 110.56 29.8103 110.007 28.0515C109.759 27.2686 109.455 28.0515 108.437 28.0515C108.935 25.4657 110.444 23.6407 112.307 25.6862C113.235 26.6842 111.29 31.1832 108.736 33.3941H108.714ZM107.304 38.7863C106.309 41.3446 102.794 42.96 99.7976 42.8663C95.8784 42.7395 93.7171 39.5582 90.9919 39.9276C87.8798 40.3576 86.7798 43.1254 81.943 42.8497C79.0797 42.6843 75.553 41.3004 75.0776 38.2625C82.8164 43.9359 87.1667 38.064 90.5994 38.3452C97.194 38.88 100.87 42.3866 107.326 38.7863H107.304ZM101.716 44.2226C106.796 43.98 105.475 42.1164 108.736 40.4073C109.963 50.3646 97.3322 47.0235 92.0311 42.8773C88.5321 44.3163 84.8727 47.0565 80.7877 46.9297C76.1444 46.7864 73.1705 44.2391 73.8283 39.4479C79.6048 47.5252 84.5797 43.754 91.6552 41.3942C95.602 43.2577 96.691 44.4597 101.716 44.2226ZM86.9898 5.18158C87.5407 5.30726 88.0764 5.49212 88.5873 5.73293C89.7979 6.22363 89.2175 6.52687 88.9688 6.51033C88.1783 6.46071 82.1697 4.77359 79.5219 6.72537C78.5048 7.4752 81.838 7.01758 82.5234 7.63509C80.3123 9.33876 75.4922 6.40558 73.574 8.73779L71.866 10.8384C70.7604 12.4925 76.2163 9.32773 77.2444 10.2375C77.0676 11.5827 76.0228 14.0638 76.6917 14.2678C77.7972 14.9791 80.8485 8.66059 83.4631 9.8901C83.8832 10.5958 82.7335 13.0438 84.0767 12.9721C85.232 12.917 88.7366 7.13336 93.6286 7.2326C91.6939 8.91421 90.9145 8.59444 90.6768 11.2078C91.7824 12.906 96.4035 5.44624 101.539 8.25812C100.433 12.6689 87.1004 16.997 82.5234 17.7027C72.7283 21.8654 66.4599 14.7089 67.09 5.28634C74.5082 7.3153 77.7419 4.73499 84.342 2.32008C89.317 0.489599 98.3659 0.572316 100.925 5.53997C94.2146 6.86872 95.1819 1.96171 91.3788 4.08992C90.3231 4.67986 94.3528 5.46278 93.9548 5.74397C92.3517 6.84666 89.4165 3.1416 86.0059 4.69641C85.2983 5.03824 85.7903 5.09888 87.0064 5.18158H86.9898ZM42.3424 84.1568L50.1199 84.5538C51.032 84.8349 51.2973 85.254 50.5345 85.9101C48.1189 87.6689 44.664 87.9446 41.6901 88.0052C40.8941 88.1927 40.8278 88.4573 41.3363 88.7826L48.2128 88.0163C49.1249 87.9556 49.7661 88.1375 49.1912 89.0032C47.4445 91.6386 43.4424 90.773 40.4685 91.5669C39.9157 91.7103 40.065 92.3112 40.9383 92.3112C42.8896 92.3112 47.2289 91.611 46.8143 92.5263C44.6751 95.2058 35.6759 96.5677 32.7407 94.9743C31.8895 93.4856 32.3704 94.2575 32.1216 92.0962C29.7447 90.7068 30.0156 91.2802 31.4528 88.8267C29.1035 86.5221 28.9598 87.2388 31.3588 85.1051C29.8055 84.4049 29.5899 83.2581 30.397 81.797C32.1161 79.7239 37.8981 78.6212 35.8197 80.6943L34.9684 81.3504C38.8378 81.8025 50.2636 79.6964 50.446 82.8942C50.4903 83.848 44.1886 83.4456 42.4529 83.7102C42.0549 83.7764 42.1434 84.1458 42.3424 84.1568ZM141.289 86.1141L133.511 86.5056C132.599 86.7923 132.334 87.2113 133.097 87.8674C135.507 89.6262 138.967 89.9019 141.941 89.957C142.737 90.1445 142.803 90.4091 142.295 90.7344L135.418 89.9735C134.506 89.9074 133.865 90.0893 134.44 90.9549C136.181 93.5904 140.189 92.7303 143.163 93.5187C143.715 93.6676 143.566 94.2685 142.693 94.2685C140.741 94.2685 136.402 93.5683 136.817 94.4836C138.956 97.1576 147.955 98.5194 150.89 96.9315C151.742 95.4429 151.261 96.2148 151.509 94.048C153.886 92.6586 153.61 93.232 152.178 90.7785C154.528 88.4739 154.671 89.1961 152.272 87.0624C153.826 86.3567 154.041 85.2154 153.234 83.7543C151.515 81.6757 145.733 80.5786 147.806 82.6516L148.663 83.3022C144.793 83.7598 133.367 81.6482 133.185 84.8515C133.141 85.7998 139.442 85.4028 141.178 85.6675C141.548 85.7337 141.46 86.1031 141.261 86.1141H141.289ZM104.551 9.85702C107.752 11.3677 107.52 12.5807 107.282 16.0266C104.518 14.9515 106.696 13.9039 101.24 12.9721L104.551 9.85702ZM168.258 66.464V68.0133C169.546 68.6804 169.917 68.9341 171.122 68.2283C171.702 65.637 170.569 67.1918 170.293 65.0856C172.305 64.0491 175.268 67.5998 176.55 64.2641C176.036 62.7645 176.384 63.7128 175.445 62.8968C174.024 61.6618 174.693 63.3654 174.411 61.2427C176.346 61.3916 178.899 62.0863 179.745 59.5887C179.038 57.5708 178.85 58.6404 177.827 57.262C178.38 55.5032 181.077 55.0015 179.563 52.6307C178.336 50.4914 177.39 52.7189 175.726 52.6307C175.544 52.0793 175.284 51.9691 175.644 50.4584C175.401 50.0563 175.11 49.6858 174.776 49.3557C172.404 49.6644 172.565 51.9911 170.995 54.4997C169.801 53.397 171.255 54.0697 170.143 52.8953L169.701 53.7499C169.751 53.8216 169.933 54.0752 169.989 54.1634C171.78 57.2013 168.33 58.2985 166.595 58.5246C166.893 61.1325 168.021 59.6659 166.169 64.2145C167.894 64.9478 168.048 64.6942 168.258 66.464Z" fill="#F8F2E9"/>
<path fill-rule="evenodd" clip-rule="evenodd" d="M101.915 31.4423L96.1548 31.3596C95.7347 30.5161 96.3096 29.7387 97.5091 29.259C100.986 28.7076 101.754 29.6946 101.931 31.4644" fill="#F8F2E9"/>
<path fill-rule="evenodd" clip-rule="evenodd" d="M78.0294 24.8372C84.4858 23.8062 86.6416 26.7889 89.0848 26.4195C87.8245 22.3892 80.8927 23.4533 78.0294 24.8372Z" fill="#F8F2E9"/>
<path fill-rule="evenodd" clip-rule="evenodd" d="M82.54 29.1542C85.8567 28.8344 86.6195 29.9537 86.7245 31.4313L81.1304 31.5691C80.5777 30.5988 80.8541 29.7552 82.54 29.1542Z" fill="#F8F2E9"/>
<path d="M124.042 113.13V96.3857L118.448 103.879V113.13H114.026V87.5476H118.448V100.504L124.042 93.1934V87.5476H128.464V113.13H124.042ZM99.2282 87.5476V96.9205H105.088V87.5476H109.51V113.13H105.088V99.0487H99.2282V113.13H94.806V87.5476H99.2282ZM85.6466 87.5476L91.7271 113.13H87.2496L86.2933 108.548L77.449 113.136C76.6992 112.058 76.1384 110.861 75.7907 109.596C75.3837 108.18 75.179 106.714 75.1826 105.24C75.1872 103.816 75.3485 102.396 75.6635 101.006C75.9751 99.5991 76.4269 98.2268 77.0123 96.9095C77.5729 95.6399 78.2816 94.4407 79.1239 93.3367C79.8964 92.3089 80.8296 91.4117 81.8877 90.6793L81.1083 87.5531L85.6466 87.5476ZM85.7074 106.63L82.645 92.5152C81.5736 94.3011 80.7182 96.2074 80.0968 98.1941C79.5897 99.8252 79.3197 101.52 79.2952 103.228C79.2859 104.215 79.3804 105.2 79.5771 106.167C79.791 107.133 80.0774 108.082 80.4339 109.006L85.7074 106.63ZM57.6708 87.5476H72.1424L69.7433 92.416C68.975 90.7289 67.9523 89.8908 66.681 89.8908H62.1151V96.9315C63.6105 97.1598 65.0648 97.6037 66.4322 98.2493C67.6294 98.8176 68.682 99.6488 69.5112 100.681C70.3728 101.79 70.9957 103.064 71.3408 104.424C71.767 106.133 71.9677 107.89 71.9378 109.651V113.13H57.6708V87.5476ZM67.4935 111.118V106.999C67.4893 106.003 67.3231 105.014 67.0016 104.072C66.7003 103.156 66.2783 102.285 65.7468 101.48C65.2777 100.764 64.6865 100.135 64 99.6221C63.4647 99.1891 62.8037 98.9397 62.1151 98.9109V111.118H67.4935Z" fill="#F8F2E9"/>
<path d="M126.59 71.9003C126.289 71.729 125.953 71.629 125.607 71.6081H125.452C125.289 71.6072 125.132 71.6706 125.015 71.7845C124.877 71.9115 124.769 72.0679 124.7 72.2422C124.61 72.4618 124.547 72.6913 124.512 72.9258C124.467 73.2047 124.444 73.4868 124.446 73.7694V73.8852H128.116L127.469 75.4124C127.395 75.1584 127.245 74.9332 127.038 74.7673C126.802 74.6 126.515 74.5183 126.226 74.5358H124.424C124.661 75.3889 125.125 76.1623 125.767 76.7742C126.456 77.4101 127.3 77.8549 128.216 78.0644L126.861 79.6192C126.318 79.4469 125.804 79.1941 125.336 78.8694C124.896 78.5676 124.509 78.1949 124.191 77.7667C123.874 77.3288 123.63 76.8429 123.467 76.3276C123.143 75.2618 123.143 74.124 123.467 73.0582C123.608 72.583 123.823 72.1328 124.103 71.7239C124.354 71.3557 124.68 71.044 125.059 70.8086C125.415 70.5862 125.828 70.4695 126.248 70.4723C126.54 70.5183 126.825 70.5979 127.099 70.7094C127.271 70.797 127.459 70.8495 127.652 70.8638C127.983 70.8494 128.31 70.79 128.625 70.6874L127.773 72.5288L126.59 71.9003ZM120.847 79.4869V73.6757L118.907 76.2725V79.4869H117.365V70.6046H118.907V75.1037L120.847 72.5674V70.6046H122.389V79.4869H120.847ZM111.339 70.6046H112.876V73.7253L113.014 73.7694L115.043 70.0312L116.547 71.3379H116.37L116.209 71.3104C116.018 71.3096 115.829 71.353 115.657 71.4372C115.45 71.552 115.264 71.699 115.104 71.8727C114.858 72.1148 114.632 72.3767 114.429 72.6557C114.192 72.9975 113.921 73.4165 113.611 73.9238C114.035 74.0119 114.436 74.1837 114.792 74.4289C115.148 74.6741 115.452 74.9879 115.684 75.3517C116.193 76.2135 116.442 77.203 116.403 78.2022V79.4869H114.866V77.2429C114.863 76.9043 114.796 76.5694 114.667 76.256C114.542 75.9333 114.377 75.6276 114.175 75.3463C113.998 75.0934 113.781 74.8702 113.534 74.6846C113.346 74.5358 113.116 74.449 112.876 74.4365V79.4869H111.339V70.6046ZM109.714 72.6116L108.99 72.1043C108.812 71.9789 108.628 71.8629 108.437 71.757C108.291 71.6733 108.135 71.6084 107.973 71.564C107.829 71.5246 107.68 71.5042 107.531 71.5033C107.353 71.5331 107.188 71.618 107.061 71.7459C106.916 71.8884 106.8 72.0567 106.718 72.2422C106.617 72.4559 106.544 72.6821 106.503 72.9148C106.456 73.1658 106.432 73.4204 106.431 73.6757C106.428 74.1775 106.528 74.6746 106.724 75.1367C106.916 75.5926 107.185 76.0122 107.52 76.3773C107.869 76.7597 108.278 77.0836 108.73 77.3366C109.207 77.6066 109.716 77.8159 110.245 77.9596L108.946 79.531C108.386 79.3491 107.856 79.0833 107.376 78.7426C106.934 78.4239 106.544 78.0389 106.221 77.6013C105.904 77.1682 105.658 76.6882 105.491 76.1788C105.318 75.6445 105.232 75.0861 105.237 74.5247C105.234 73.9814 105.312 73.4407 105.469 72.9203C105.616 72.4481 105.842 72.0044 106.138 71.6081C106.394 71.2454 106.722 70.9379 107.1 70.7039C107.31 70.5319 107.563 70.418 107.831 70.3735C108.1 70.329 108.376 70.3555 108.631 70.4503L109.012 70.5771L109.388 70.6929C109.493 70.7275 109.603 70.746 109.714 70.748C109.868 70.7508 110.022 70.7378 110.173 70.7094C110.361 70.6745 110.546 70.6247 110.726 70.5605L109.714 72.6116ZM102.982 77.3587C102.982 77.0133 102.924 76.6704 102.81 76.3442C102.709 76.0243 102.564 75.72 102.379 75.44C102.214 75.1922 102.009 74.974 101.771 74.7949C101.586 74.6441 101.357 74.5571 101.119 74.5468V78.7756H102.982V77.3587ZM101.163 71.3269V73.8135H101.29C101.511 73.8211 101.731 73.7693 101.925 73.6636C102.12 73.5579 102.282 73.4021 102.396 73.2125C102.693 72.6207 102.825 71.9597 102.777 71.2993L101.163 71.3269ZM104.574 79.4869H99.5986V70.6046H104.286V71.2828C104.298 71.6029 104.27 71.9233 104.203 72.2366C104.149 72.5031 104.05 72.7584 103.91 72.992C103.756 73.2376 103.57 73.4618 103.357 73.6591C103.116 73.8899 102.855 74.1001 102.578 74.2876C103.222 74.5962 103.737 75.1213 104.032 75.7708C104.368 76.5633 104.529 77.4192 104.502 78.2794L104.574 79.4869ZM95.8452 79.4869C95.4235 79.2935 95.0339 79.0369 94.6899 78.726C94.3419 78.4077 94.0338 78.0486 93.7724 77.6564C93.5145 77.2607 93.3066 76.8347 93.1532 76.3883C93.0067 75.9434 92.932 75.4782 92.9321 75.0099C92.9349 74.1484 93.178 73.3046 93.6342 72.573C94.184 71.7051 94.9018 70.9553 95.7457 70.3676H95.8452C96.2791 70.5749 96.6826 70.8401 97.0448 71.156C97.4075 71.4816 97.7271 71.8522 97.9955 72.2587C98.2587 72.6581 98.4687 73.0899 98.6202 73.5433C98.7713 73.9778 98.8498 74.4342 98.8523 74.8941C98.8449 75.752 98.5918 76.59 98.1227 77.3091C97.5398 78.1833 96.7881 78.9331 95.9116 79.5145L95.8452 79.4869ZM95.1764 71.9444C94.9055 72.2432 94.6986 72.5941 94.5683 72.9754C94.4414 73.3579 94.3761 73.758 94.3749 74.1609C94.3757 74.5337 94.4278 74.9048 94.5296 75.2635C94.6277 75.6351 94.7687 75.994 94.9498 76.3332C95.119 76.6629 95.3289 76.9704 95.5744 77.2484C95.7987 77.5059 96.0616 77.7272 96.3538 77.9045H96.6136C96.8733 77.5952 97.0721 77.2398 97.1995 76.8569C97.3362 76.4728 97.4053 76.0681 97.4041 75.6605C97.403 75.2876 97.3509 74.9166 97.2493 74.5578C97.1532 74.1856 97.0122 73.8264 96.8292 73.4882C96.6598 73.1615 96.4519 72.8561 96.2101 72.5785C95.9953 72.323 95.7394 72.105 95.4528 71.9334L95.1764 71.9444ZM88.5708 70.5826V73.8301H90.605V70.5826H92.1417V79.4648H90.605V74.5744H88.5708V79.4648H87.0285V70.6046L88.5708 70.5826ZM84.2094 70.5826L86.332 79.4648H84.7787L84.436 77.8714L81.3626 79.4648C81.1009 79.0899 80.9029 78.6745 80.7767 78.2353C80.6405 77.7434 80.5736 77.235 80.5777 76.7246C80.5794 76.2294 80.635 75.7358 80.7435 75.2525C80.8516 74.7637 81.009 74.2872 81.2134 73.8301C81.4059 73.3889 81.6509 72.9724 81.943 72.5895C82.2144 72.2333 82.5409 71.9225 82.9104 71.6687L82.6395 70.566L84.2094 70.5826ZM84.2094 77.1988L83.1481 72.2973C82.7777 72.9169 82.4809 73.5775 82.2636 74.2656C82.0892 74.8323 81.9961 75.4207 81.9872 76.0134C81.9839 76.3557 82.0154 76.6974 82.0812 77.0334C82.156 77.3693 82.2557 77.6992 82.3797 78.0203L84.2094 77.1988ZM74.8122 70.5826H79.837L79.052 72.2918C78.7867 71.7073 78.4329 71.4151 77.9907 71.4151H76.4042V73.8631C76.9253 73.9409 77.4319 74.0951 77.9078 74.3207C78.3231 74.5174 78.6879 74.8059 78.9746 75.1643C79.2741 75.5497 79.4905 75.9927 79.6103 76.4655C79.7576 77.0586 79.8264 77.6684 79.8148 78.2794V79.4869H74.8399L74.8122 70.5826ZM78.245 78.7756V77.3476C78.2451 77.0023 78.1872 76.6594 78.0736 76.3332C77.9708 76.013 77.8238 75.7087 77.6369 75.4289C77.4758 75.1801 77.2718 74.9617 77.0344 74.7839C76.8481 74.632 76.6171 74.5448 76.3766 74.5358V78.7756H78.245ZM73.8228 70.5936V71.8341C73.8277 72.3987 73.774 72.9623 73.6625 73.5158C73.5709 73.9865 73.3827 74.4333 73.1097 74.828C72.8157 75.2171 72.4379 75.5355 72.0042 75.7598C71.4717 76.0375 70.8961 76.2239 70.3016 76.3111V79.4759H68.7649V70.6046L73.8228 70.5936ZM70.3182 75.5999C70.5568 75.5862 70.7859 75.5017 70.976 75.3573C71.2251 75.1822 71.4404 74.9636 71.6117 74.7122C71.8111 74.4351 71.9728 74.1329 72.0926 73.8135C72.219 73.4862 72.2845 73.1387 72.2861 72.788V71.3379H70.3182V75.5999ZM63.9724 70.5936L65.6307 74.2436L66.6975 70.1084L68.3559 71.2111H68.2177C67.9204 71.2056 67.6294 71.2965 67.3885 71.4703C67.0894 71.7217 66.8784 72.0615 66.786 72.4406L65.4096 77.6729L65.3211 78.2739C65.3182 78.5139 65.3854 78.7496 65.5146 78.9521C65.6966 79.1913 65.9362 79.381 66.2111 79.5034H64.293L65.0724 76.256L62.3085 70.6212L63.9724 70.5936ZM56.9024 70.5936H58.4391V73.7143L58.5773 73.7584L60.606 70.0202L62.1095 71.3269H61.9326L61.7723 71.2993C61.5807 71.298 61.3914 71.3414 61.2196 71.4261C61.0121 71.5394 60.8252 71.6866 60.6668 71.8617C60.4269 72.1146 60.207 72.3855 60.009 72.6722C59.7768 73.014 59.5004 73.4331 59.1909 73.9403C59.6152 74.0284 60.0176 74.2001 60.3745 74.4453C60.7314 74.6905 61.0356 75.0043 61.2693 75.3683C61.7759 76.2307 62.0234 77.2201 61.9824 78.2188V79.5034H60.4457V77.2594C60.4446 76.9212 60.379 76.5863 60.2522 76.2725C60.1251 75.9509 59.9599 75.6454 59.7603 75.3628C59.5809 75.1097 59.3626 74.8864 59.1135 74.7012C58.9275 74.5524 58.6993 74.4656 58.4612 74.453V79.5034H56.8858L56.9024 70.5936Z" fill="#F8F2E9"/>
</svg>
