<svg width="30" height="30" viewBox="0 0 30 30" fill="none" xmlns="http://www.w3.org/2000/svg">
<path fill-rule="evenodd" clip-rule="evenodd" d="M15 0C16.1511 0.959264 20.1857 3.26508 23.377 6.42871C26.6663 9.68967 28.8312 13.6364 30 15C28.8312 16.3636 26.6663 20.3103 23.377 23.5713C20.1857 26.7349 16.1511 29.0407 15 30C13.8487 29.0407 9.81511 26.7347 6.62402 23.5713C3.33457 20.3103 1.16883 16.3636 0 15C1.1688 13.6364 3.33373 9.68967 6.62305 6.42871C9.81428 3.26508 13.8489 0.959264 15 0ZM13.4014 17.585L9.40625 14.0889L8.08887 15.5938L13.5977 20.4141L21.4102 11.3994L19.8994 10.0898L13.4014 17.585Z" fill="#7A8F61"/>
</svg>
